# xmcd
#
# Track frame offsets:
#	150
#	13826
#	28114
#	47037
#	72799
#	85606
#	102785
#	121136
#	137593
#	154942
#	169815
#	183902
#	200565
#	214356
#
# Disc length: 3164 seconds
#
# Revision: 0
# Processed by: cddbd v1.5.2PL0 Copyright (c) Steve Scherf et al.
# Submitted via: EasyCDDAExtractor 11.1.0.1
#
DISCID=bd0c5a0e
DTITLE=Various Artist - Mr Music Country
DYEAR=1900
DGENRE=country
TTITLE0=Ken Mellons - Institute of honky tonks
TTITLE1=Miss Leslie - Every tuesday night
TTITLE2=Ken Holloway - Baby let's dance
TTITLE3=I see hawks in L.A. - Raised by hippies
TTITLE4=Will Taylor - There goes my memory
TTITLE5=Larry Sparks and Tom T. Hall - I want you to meet my friend
TTITLE6=Elisabeth McQueen - Lyin
TTITLE7=Bobby Dale - Wanted man
TTITLE8=Mike Cullison - Pour hank on the pain
TTITLE9=Joe Paul Nichols - Black sheep
TTITLE10=Cookies n beans - The road away from you
TTITLE11=Mike headrik& Tommy Jennnings - Mooney had his back
TTITLE12=Angela Ledin - Don't try to find me
TTITLE13=Michael O'Neill - Horse in pain
EXTD=
EXTT0=
EXTT1=
EXTT2=
EXTT3=
EXTT4=
EXTT5=
EXTT6=
EXTT7=
EXTT8=
EXTT9=
EXTT10=
EXTT11=
EXTT12=
EXTT13=
PLAYORDER=
